<svg xmlns="http://www.w3.org/2000/svg" version="1.1" xmlns:xlink="http://www.w3.org/1999/xlink" xmlns:svgjs="http://svgjs.dev/svgjs" width="100%" height="100%" viewBox="0 0 1000 600"><rect width="1000" height="600" x="0" y="0" fill="#e2d1f9"/><g><circle r="166.66666666666666" cx="623.5610148111979" cy="645.7831556553641" fill="#ffff00" transform="matrix(0.2735863347900559,0,0,0.2735863347900559,0,123.32257415194647)"/><path d="M497.02229838869243 596.2311936892836L500.3822516315306 570.7831999978745L511.5431397946974 574.5814080115176L594.6362443393214 573.0913417907807L596.3016124683804 586.9694095329384L515.7503855944251 701.4123386824787L520.3666691802377 705.4150655891641L575.4991193475041 701.616857575521L577.164487476563 690.2806675040321L594.4317254462792 688.9951201763375L597.9961975821595 718.4458407744321L495.56144915267583 720.7831995520587L492.81505258896465 705.4150655891641L573.3954964476402 590.1248438827342L516.3639422735521 589.5112872036073L512.7994701376717 599.5911469321218L497.02229838869243 596.2311936892836ZM692.8637469690775 640.6117934794678L711.5918341748102 620.6273759307608L704.0246351322442 593.5140141102927L673.0838483134128 588.0212209828703L651.4340626356468 591.4103912104289L654.9985347715271 638.0991327935193L692.8637469690775 640.6117934794678ZM741.0425547729049 681.4279211337715L754.3070658359354 695.3059888759293L728.2162984806791 718.6795766521948L711.7963530678526 715.9331800884836L700.664681889406 666.4980419416819L680.8847832337415 651.977200535677L653.5376855355107 655.9799274423624L654.1512422146377 708.1614621528753L667.4157532776683 712.5732268456454L669.1103383914476 720.549463674296L623.8824460443736 719.935906995169L623.4441912735688 714.2385949747044L635.8614097797099 709.4177924958495L633.3487490937612 598.1302976961052L625.7523330664749 589.920324989692L610.6179349813431 588.254956860633L611.2607086451903 576.8895498044238L628.4987296301861 576.4512950336189L637.3222590157263 580.0449841542197L642.5813162653862 575.3994835836869L699.8173893325165 576.2467761405766L726.3171944738576 600.6429583820537L722.5189864602144 635.7909910006131L704.2291540252866 649.6690587427707L719.8018068812235 664.5989379348604L721.2626561172401 702.4641501324105L725.9081566877728 704.1587352461898L741.0425547729049 681.4279211337715Z " fill="#e2d1f9" transform="matrix(0.2735863347900559,0,0,0.2735863347900559,0,123.32257415194647)"/><path d="M904.8847679480422 681.8210813269674L905.6340394927718 687.5238703062979L874.0189429248773 686.9202904508213L873.5610547586535 683.0282410379206L884.3422397633734 679.8854631697493L884.3422397633734 589.9728778022019L876.4124492483189 591.6171125809141L877.0160291037954 581.7308908101767L896.0392011005405 581.2730026439531L894.6863497003343 679.7189583820317L904.8847679480422 681.8210813269674ZM930.3600004688473 648.1038618141371L930.5056921581003 647.5002819586605L965.5757630711367 641.9639977670475L961.3715171812653 622.337245914826L951.339603721275 618.5908881911782L931.7128518690535 625.1886404044914L930.3600004688473 648.1038618141371ZM939.7883340733609 610.6402845776589L960.9344421135064 612.2845193563711L972.9227868291794 622.774320982585L977.2519113098391 648.5617499803607L930.3600004688473 656.0544654276563L938.4562957716195 679.8854631697493L956.1266163681584 679.4275750035257L977.1062196205861 673.1420192671833L978.3133793315393 684.9638591951385L936.0419763497131 690.9580315529751L917.6223842084447 663.6928725642049L919.7245071533805 625.1886404044914L939.7883340733609 610.6402845776589ZM1038.8586827653808 674.7862540458954L1038.8586827653808 683.0282410379206L1014.2784134785583 687.6695619955509L1002.5814521413912 676.1391054461016L1002.5814521413912 660.6957863852866L1002.5814521413912 622.0250494378554L995.4009331710662 623.2322091488086L989.5524525024827 624.5850605490147L988.4909844807825 617.383728480225L999.147290894714 613.9495672335479L1001.228600741185 613.9495672335479L1001.228600741185 599.8590995729392L999.147290894714 595.0512738275912L1011.8849071551166 595.0512738275912L1013.0712537676051 608.1010865649644L1013.0712537676051 612.8880992118476L1034.0508570200327 610.348901199153L1034.0508570200327 622.0250494378554L1013.0712537676051 620.9843945146199L1013.0712537676051 670.290624777518L1020.1268941471418 678.2204152925725L1038.8586827653808 674.7862540458954ZM1139.6981448269012 648.4160582911078L1126.9605285664984 648.8531333588667L1110.1851712039424 660.0922065298101L1109.7272830377187 676.888376990831L1115.721455395555 680.0311548590023Q1118.7185415744734 679.8854631697493 1121.2785526856328 679.7189583820317L1121.2785526856328 679.7189583820317Q1123.3598625321038 679.5732666927787 1125.0873497046746 679.3443226096668Q1126.8148368772454 679.1361916250197 1126.8148368772454 678.8239951480491L1126.8148368772454 678.8239951480491Q1126.8148368772454 678.8239951480491 1127.418416732722 677.9290319140665Q1128.0219965881988 677.034068680084 1128.9793991175752 675.597964886019Q1129.9576147454168 674.1826741904188 1131.1647744563702 672.4551870178478Q1132.3511210688584 670.7276998452769 1133.7039724690644 668.9377733773118L1133.7039724690644 668.9377733773118Q1136.7010586479828 664.7335274874405 1140.7596128486011 659.3429349850804L1140.7596128486011 659.3429349850804L1139.6981448269012 648.4160582911078ZM1101.6309877349463 619.3401597359078L1117.365690174267 608.3924699434702L1151.2494144748152 616.3430735569895L1151.8321812318272 677.9290319140665L1164.5697974922296 678.8239951480491L1164.7363022799473 685.7131307398681L1146.1502053509612 687.5238703062979L1139.8438365161542 674.3283658796718L1132.0597376903524 686.6289070723154L1106.7301968588004 691.4159197191988L1097.4475549435397 680.1768465482553L1098.0511347990164 657.4073168278625L1123.6720590090745 640.7568380560944L1139.5524531376482 638.6755282096234L1140.7596128486011 622.337245914826L1115.721455395555 619.0279632589371L1108.3744316375123 631.7655795193397L1100.1324446454873 623.0865174595556L1101.6309877349463 619.3401597359078ZM1277.876305534111 665.337107342917L1282.0597383255176 650.2059847590727L1273.8177513334927 626.0836036384738L1257.0423939709362 623.8357890042852L1241.4533832208685 629.372073195898L1242.3483464548513 668.1885018325823L1257.937357204919 674.1826741904188L1277.876305534111 665.337107342917ZM1281.914046636265 614.2409506120538L1295.692317819903 652.9116875594851L1280.1241201682997 680.0311548590023L1255.9809259492363 684.6724758166326L1240.8498033653918 677.7833402248136L1241.5990749101215 711.5005597376439L1251.6518014685767 714.9347209843211L1251.0482216131 720.7832016529046L1220.7651633469468 720.6375099636516L1220.1823965899348 716.1418806952743L1229.4650385051955 712.3955229716264L1228.5700752712128 618.7365798804311L1223.4708661473592 616.9466534124662L1228.5700752712128 607.039618543264L1241.5990749101215 613.7830624458302L1240.5584199868858 619.7772348036667L1256.293122426207 613.9495672335479L1281.914046636265 614.2409506120538ZM1378.5700759063784 666.6899587431232L1386.6663712091504 673.7247860241952L1369.1209292034 691.7073030977047L1356.549817730715 686.1710189060917L1354.8847698535383 633.8677024642753L1344.5614730150423 622.337245914826L1323.2696732856439 641.9639977670475L1323.2696732856439 680.7804264037319L1334.2173630780812 684.068895961156L1335.112326312064 688.4188335402804L1305.8907360676108 688.5645252295334L1304.995772833628 684.068895961156L1310.677748714494 681.8210813269674L1312.9255633486828 593.1156556703731L1303.1850332671984 584.5614722013773L1314.4241064381417 576.9230650648286L1324.1646365196261 592.3663841256435L1322.5204017409142 631.9320843070574L1338.2551041802349 610.6402845776589L1358.0483608201744 616.4887652462425L1367.185311046182 633.4306273965165L1365.0831881012464 681.0718097822378L1368.2259659694173 683.1739327271736L1378.5700759063784 666.6899587431232ZM1421.7364421221869 685.4217473613622L1422.3192088791989 689.6259932512336L1392.3483470900164 689.9173766297396L1391.5990755452867 685.5674390506152L1399.5496791588062 682.424661182444L1400.1532590142829 619.0279632589371L1389.205569221845 615.2816055352893L1388.1649142986098 611.5352478116415L1419.3221227002805 609.7453213436764L1420.82066578974 612.7424075225947L1411.6837155637322 617.8416166464486L1411.0801357082555 682.278969493191L1421.7364421221869 685.4217473613622ZM1413.1822586531912 595.3634703045618L1401.7974937929948 600.1504829514452L1396.6982846691408 589.9728778022019L1402.83814871623 584.1243971336183L1412.4329871084615 585.3107437461068L1413.1822586531912 595.3634703045618ZM1464.1327236948014 681.8210813269674L1464.881995239531 687.5238703062979L1433.2668986716362 686.9202904508213L1432.809010505413 683.0282410379206L1443.6110086085973 679.8854631697493L1443.6110086085973 589.9728778022019L1435.660404995078 591.6171125809141L1436.2639848505546 581.7308908101767L1455.2871568472997 581.2730026439531L1453.955118545558 679.7189583820317L1464.1327236948014 681.8210813269674ZM1512.68968241297 620.0894312806373L1497.412868139873 618.8822715696841L1484.2173637132464 635.9698254092111L1487.0687582029118 665.48279903217L1503.6984238762152 681.2175014714908L1514.9374970471586 681.0718097822378L1529.0279647077673 653.494454316497L1522.7215958729603 627.582146727933L1512.68968241297 620.0894312806373ZM1492.6050423945248 608.850358109694L1517.788891536824 608.850358109694L1533.6692856653976 623.5235925273145L1539.6634580232344 657.8443918956214L1518.5381630815536 690.9580315529751L1497.558559829126 691.8738078854223L1475.5174885549977 665.337107342917L1473.8732537762858 631.1828127623278L1492.6050423945248 608.850358109694ZM1556.605320173508 613.6373707565773L1581.331281149584 609.4539379651704L1598.1066385121403 616.3430735569895L1604.1008108699766 610.494592888406L1610.5528713940366 614.9902221567834L1599.1472934353756 630.2670364298806L1593.7567009330155 625.1886404044914L1569.1764316461931 619.3401597359078L1561.2466411311384 628.6228016511685L1571.5907510680995 643.1711574780007L1601.707304546535 650.6638729252965L1605.8907373379416 676.1391054461016L1586.1182937964672 688.4188335402804L1559.7480980416794 682.424661182444L1556.1474320072844 688.5645252295334L1548.654716559989 687.2116738293272L1553.7539256838431 671.4769713900065L1584.3283673285023 678.6783034587962L1593.7567009330155 671.6434761777242L1590.1560348986209 659.0515516065745L1558.1038632629675 648.1038618141371L1549.4039881047183 630.2670364298806L1556.605320173508 613.6373707565773ZM1677.2380388749675 665.337107342917L1681.4214716663741 650.2059847590727L1673.1794846743492 626.0836036384738L1656.4041273117928 623.8357890042852L1640.815116561725 629.372073195898L1641.7100797957078 668.1885018325823L1657.2990905457755 674.1826741904188L1677.2380388749675 665.337107342917ZM1681.2757799771216 614.2409506120538L1695.0540511607596 652.9116875594851L1679.4858535091562 680.0311548590023L1655.3426592900928 684.6724758166326L1640.2115367062484 677.7833402248136L1640.960808250978 711.5005597376439L1651.0135348094327 714.9347209843211L1650.4099549539565 720.7832016529046L1620.1268966878033 720.6375099636516L1619.5441299307913 716.1418806952743L1628.826771846052 712.3955229716264L1627.9318086120697 618.7365798804311L1622.8325994882157 616.9466534124662L1627.9318086120697 607.039618543264L1640.960808250978 613.7830624458302L1639.9201533277424 619.7772348036667L1655.6548557670635 613.9495672335479L1681.2757799771216 614.2409506120538ZM1777.931809247235 666.6899587431232L1786.0281045500074 673.7247860241952L1768.4826625442565 691.7073030977047L1755.911551071572 686.1710189060917L1754.2465031943948 633.8677024642753L1743.9232063558984 622.337245914826L1722.6314066265004 641.9639977670475L1722.6314066265004 680.7804264037319L1733.5790964189378 684.068895961156L1734.4740596529205 688.4188335402804L1705.2524694084673 688.5645252295334L1704.357506174485 684.068895961156L1710.0394820553506 681.8210813269674L1712.2872966895393 593.1156556703731L1702.546766608055 584.5614722013773L1713.7858397789987 576.9230650648286L1723.526369860483 592.3663841256435L1721.8821350817707 631.9320843070574L1737.6168375210914 610.6402845776589L1757.4100941610309 616.4887652462425L1766.5470443870386 633.4306273965165L1764.444921442103 681.0718097822378L1767.5876993102738 683.1739327271736L1777.931809247235 666.6899587431232ZM1803.261350078787 648.1038618141371L1803.40704176804 647.5002819586605L1838.4771126810765 641.9639977670475L1834.2728667912052 622.337245914826L1824.2409533312148 618.5908881911782L1804.6142014789934 625.1886404044914L1803.261350078787 648.1038618141371ZM1812.6896836833007 610.6402845776589L1833.8357917234462 612.2845193563711L1845.8241364391192 622.774320982585L1850.1532609197789 648.5617499803607L1803.261350078787 656.0544654276563L1811.3576453815595 679.8854631697493L1829.027965978098 679.4275750035257L1850.0075692305259 673.1420192671833L1851.2147289414788 684.9638591951385L1808.943325959653 690.9580315529751L1790.5237338183847 663.6928725642049L1792.6258567633204 625.1886404044914L1812.6896836833007 610.6402845776589ZM1907.264403106943 613.3459873780713L1917.8998964224102 625.9379119492208L1908.7629461964025 633.7220107750225L1900.8123425828835 622.191554225573L1888.678306177957 626.2292953277268L1885.0776401435623 634.179898941246L1885.681219999039 679.1361916250197L1894.5267868465407 681.9667730162204L1893.6110105140933 687.2116738293272L1867.095123070053 687.2116738293272L1866.6372349038293 683.1739327271736L1873.692875283366 680.3225382375082L1873.547183594113 620.3808146591433L1866.2001598360703 616.1973818677366L1872.6314072616656 607.9553948757114L1883.579097054103 614.9902221567834L1884.4740602880856 620.0894312806373L1892.1124674246344 617.0923451017192L1907.264403106943 613.3459873780713ZM2021.7364446628485 660.4044030067807L2022.4857162075782 627.8735301064389L2004.9610873002925 621.2757778931258L1988.9350014824654 626.5206787062327L1985.0221389711 655.9087737384033L1998.363335086979 677.9290319140665L2006.9175185559748 675.9726006583838L2021.7364446628485 660.4044030067807ZM2051.2702313842724 684.9638591951385L2027.2935419529258 686.9202904508213L2021.1536779058365 673.2877109564363L2011.2466430366349 686.6289070723154L1988.4771133162417 685.2760556721092L1973.3459907323977 654.9929974059561L1982.3372492691524 619.9437395913843L2004.0661240663098 611.2438644331356L2024.1507640847549 619.4858514251608L2024.9000356294846 582.0222741886827L2034.3283692339978 570.7832010177392L2042.7160479152762 577.6723366095582L2036.430492178934 582.9172374226652L2033.8912941662393 678.3869200802902L2048.2731452053536 675.6812172798778L2051.2702313842724 684.9638591951385ZM2071.50056309197 648.1038618141371L2071.6462547812234 647.5002819586605L2106.71632569426 641.9639977670475L2102.5120798043886 622.337245914826L2092.480166344398 618.5908881911782L2072.8534144921764 625.1886404044914L2071.50056309197 648.1038618141371ZM2080.928896696484 610.6402845776589L2102.0750047366296 612.2845193563711L2114.063349452302 622.774320982585L2118.3924739329623 648.5617499803607L2071.50056309197 656.0544654276563L2079.5968583947424 679.8854631697493L2097.267178991281 679.4275750035257L2118.2467822437093 673.1420192671833L2119.4539419546622 684.9638591951385L2077.182538972836 690.9580315529751L2058.7629468315677 663.6928725642049L2060.8650697765033 625.1886404044914L2080.928896696484 610.6402845776589ZM2205.162281432338 615.1359138460364L2203.2266632751202 620.0894312806373L2195.1303679723483 621.4422826808435L2170.5500986855254 689.6259932512336L2156.3139393356637 689.16810508501L2133.690101304524 617.5294201694779L2126.9466574019575 615.59380201226L2127.3837324697165 611.5352478116415L2153.774741322969 611.2438644331356L2154.211816390728 615.2816055352893L2146.5734092541798 618.1330000249546L2162.3081116935005 676.888376990831L2166.658049272625 675.9726006583838L2184.1826781799105 617.5294201694779L2178.6463939882974 613.6373707565773L2179.687048911533 610.0367047221824L2205.162281432338 615.1359138460364ZM2225.3926131400367 648.1038618141371L2225.5383048292892 647.5002819586605L2260.6083757423257 641.9639977670475L2256.424942950919 622.337245914826L2246.3722163924645 618.5908881911782L2226.7454645402427 625.1886404044914L2225.3926131400367 648.1038618141371ZM2234.8417598430146 610.6402845776589L2255.9670547846954 612.2845193563711L2267.9553995003685 622.774320982585L2272.305337079493 648.5617499803607L2225.3926131400367 656.0544654276563L2233.4889084428087 679.8854631697493L2251.180042137812 679.4275750035257L2272.1596453902403 673.1420192671833L2273.3459920027285 684.9638591951385L2231.095402119367 690.9580315529751L2212.654996879634 663.6928725642049L2214.7571198245696 625.1886404044914L2234.8417598430146 610.6402845776589ZM2319.6551360867084 681.8210813269674L2320.4044076314376 687.5238703062979L2288.789311063543 686.9202904508213L2288.33142289732 683.0282410379206L2299.1334210005043 679.8854631697493L2299.1334210005043 589.9728778022019L2291.182817386985 591.6171125809141L2291.7863972424616 581.7308908101767L2310.8095692392067 581.2730026439531L2309.4567178390002 679.7189583820317L2319.6551360867084 681.8210813269674ZM2368.212094804877 620.0894312806373L2352.914467433315 618.8822715696841L2339.7397761051534 635.9698254092111L2342.591170594819 665.48279903217L2359.220836268122 681.2175014714908L2370.4599094390655 681.0718097822378L2384.5503770996743 653.494454316497L2378.2440082648673 627.582146727933L2368.212094804877 620.0894312806373ZM2348.127454786432 608.850358109694L2373.311303928731 608.850358109694L2389.1916980573046 623.5235925273145L2395.1858704151414 657.8443918956214L2374.06057547346 690.9580315529751L2353.080972221033 691.8738078854223L2331.0399009469047 665.337107342917L2329.3956661681927 631.1828127623278L2348.127454786432 608.850358109694ZM2458.873951717154 665.337107342917L2463.0573845085605 650.2059847590727L2454.8153975165355 626.0836036384738L2438.040040153979 623.8357890042852L2422.4510294039114 629.372073195898L2423.3459926378937 668.1885018325823L2438.935003387962 674.1826741904188L2458.873951717154 665.337107342917ZM2462.9116928193075 614.2409506120538L2476.7107771014103 652.9116875594851L2461.1217663513426 680.0311548590023L2436.9993852307434 684.6724758166326L2421.8474495484347 677.7833402248136L2422.5967210931644 711.5005597376439L2432.649447651619 714.9347209843211L2432.0458677961424 720.7832016529046L2401.7836226284544 720.6375099636516L2401.1800427729777 716.1418806952743L2410.4626846882384 712.3955229716264L2409.5677214542557 618.7365798804311L2404.4685123304016 616.9466534124662L2409.5677214542557 607.039618543264L2422.5967210931644 613.7830624458302L2421.5560661699287 619.7772348036667L2437.2907686092494 613.9495672335479L2462.9116928193075 614.2409506120538ZM2501.4367380774856 648.1038618141371L2501.5824297667386 647.5002819586605L2536.652500679775 641.9639977670475L2532.448254789904 622.337245914826L2522.416341329914 618.5908881911782L2502.7687763792273 625.1886404044914L2501.4367380774856 648.1038618141371ZM2510.8650716819993 610.6402845776589L2531.99036662368 612.2845193563711L2543.978711339353 622.774320982585L2548.3286489184775 648.5617499803607L2501.4367380774856 656.0544654276563L2509.5122202817934 679.8854631697493L2527.2033539767967 679.4275750035257L2548.182957229225 673.1420192671833L2549.390116940178 684.9638591951385L2507.1187139583517 690.9580315529751L2488.6991218170833 663.6928725642049L2490.7804316635543 625.1886404044914L2510.8650716819993 610.6402845776589ZM2681.095404024863 615.1359138460364L2672.853417032838 618.1330000249546L2641.0926287756906 709.6898201712141L2623.8593832469105 717.0368439292567L2605.1275946286714 707.2963138477725L2609.165335730825 697.4100920770352L2624.9000381701458 707.2963138477725L2633.142025162171 705.0484992135838L2637.4919627412955 692.7687711194048L2641.3840121541966 679.5732666927787L2633.599913328395 683.77751258265L2613.3695816206964 621.1300862038728L2606.6261377181304 620.5265063483963L2604.8362112501654 614.2409506120538L2624.462963102387 612.4510241440888L2631.2064070049532 643.4625408565067L2642.5911718651496 676.2847971353546L2661.1772687941357 617.5294201694779L2654.288133202316 615.448110323007L2654.4338248915697 611.5352478116415L2680.2004407908807 611.3895561223885L2681.095404024863 615.1359138460364ZM2724.407461929925 620.0894312806373L2709.1306476568275 618.8822715696841L2695.9351432302014 635.9698254092111L2698.7865377198664 665.48279903217L2715.41620339317 681.2175014714908L2726.6552765641136 681.0718097822378L2740.7457442247223 653.494454316497L2734.4601884883796 627.582146727933L2724.407461929925 620.0894312806373ZM2704.3228219114794 608.850358109694L2729.506671053779 608.850358109694L2745.3870651823527 623.5235925273145L2751.381237540189 657.8443918956214L2730.255942598508 690.9580315529751L2709.2763393460805 691.8738078854223L2687.256081170417 665.337107342917L2685.591033293241 631.1828127623278L2704.3228219114794 608.850358109694ZM2842.188786141719 668.1885018325823L2848.786538355032 679.5732666927787L2826.7662801793686 690.0630683189926L2818.3786014980906 687.8152536848039L2815.672898697678 679.1361916250197L2813.7164674419955 668.7920816880588L2787.2005799979547 689.9173766297396L2771.611569247887 684.5267841273796L2767.1159399795097 666.8356504323762L2766.6788649117507 620.6930111361139L2760.3724960769437 617.9873083357016L2760.8303842431674 614.3866423013068L2787.6584681641784 613.7830624458302L2786.9091966194487 619.1944680466548L2779.1042846951827 622.337245914826L2779.1042846951827 664.5878357981875L2784.6613819852605 677.9290319140665L2794.4019120667444 672.5384394117067L2812.5301208295073 662.4857128532517L2814.923627152949 620.8387028253669L2808.325874939636 617.8416166464486L2808.783763105859 613.7830624458302L2832.4482560602346 613.7830624458302L2833.1975276049643 618.8822715696841L2825.4134287791626 621.8793577486024L2824.955540612939 677.471143747843L2827.203355247128 681.2175014714908L2842.188786141719 668.1885018325823ZM2894.346410894282 613.3459873780713L2904.9819042097492 625.9379119492208L2895.8449539837416 633.7220107750225L2887.894350370222 622.191554225573L2875.7603139652965 626.2292953277268L2872.1596479309014 634.179898941246L2872.763227786378 679.1361916250197L2881.60879463388 681.9667730162204L2880.713831399897 687.2116738293272L2854.177130857392 687.2116738293272L2853.740055789633 683.1739327271736L2860.774883070705 680.3225382375082L2860.629191381452 620.3808146591433L2853.2821676234094 616.1973818677366L2859.73422814747 607.9553948757114L2870.661104841442 614.9902221567834L2871.5768811738894 620.0894312806373L2879.215288310438 617.0923451017192L2894.346410894282 613.3459873780713ZM3005.696487680481 648.4160582911078L2992.958871420078 648.8531333588667L2976.1627009590575 660.0922065298101L2975.7256258912985 676.888376990831L2981.7197982491352 680.0311548590023Q2984.7168844280536 679.8854631697493 2987.256082440748 679.7189583820317L2987.256082440748 679.7189583820317Q2989.3582053856835 679.5732666927787 2991.085692558255 679.3443226096668Q2992.792366632361 679.1361916250197 2992.792366632361 678.8239951480491L2992.792366632361 678.8239951480491Q2992.792366632361 678.8239951480491 2993.3959464878376 677.9290319140665Q2993.999526343314 677.034068680084 2994.977741971155 675.597964886019Q2995.9559575989965 674.1826741904188 2997.142304211485 672.4551870178478Q2998.349463922438 670.7276998452769 2999.7023153226446 668.9377733773118L2999.7023153226446 668.9377733773118Q3002.6994015015625 664.7335274874405 3006.7371426037166 659.3429349850804L3006.7371426037166 659.3429349850804L3005.696487680481 648.4160582911078ZM2967.6293305885265 619.3401597359078L2983.364033027847 608.3924699434702L3017.2269442299303 616.3430735569895L3017.830524085407 677.9290319140665L3030.5681403458098 678.8239951480491L3030.7138320350623 685.7131307398681L3012.127735106076 687.5238703062979L3005.842179369734 674.3283658796718L2998.0372674454675 686.6289070723154L2972.72853971238 691.4159197191988L2963.4250846986547 680.1768465482553L2964.0286645541314 657.4073168278625L2989.6495887641895 640.7568380560944L3005.5299828927637 638.6755282096234L3006.7371426037166 622.337245914826L2981.7197982491352 619.0279632589371L2974.3727744910925 631.7655795193397L2966.130787499067 623.0865174595556L2967.6293305885265 619.3401597359078ZM3095.900456426534 665.337107342917L3100.104702316406 650.2059847590727L3091.862715324381 626.0836036384738L3075.0665448633595 623.8357890042852L3059.4775341132913 629.372073195898L3060.393310445739 668.1885018325823L3075.9615080973417 674.1826741904188L3095.900456426534 665.337107342917ZM3099.938197528688 614.2409506120538L3113.737281810791 652.9116875594851L3098.1482710607233 680.0311548590023L3074.0258899401238 684.6724758166326L3058.8947673562798 677.7833402248136L3059.6440389010095 711.5005597376439L3069.675952361 714.9347209843211L3069.072372505523 720.7832016529046L3038.8101273378347 720.6375099636516L3038.2065474823585 716.1418806952743L3047.4891893976182 712.3955229716264L3046.5942261636364 618.7365798804311L3041.495017039782 616.9466534124662L3046.5942261636364 607.039618543264L3059.6440389010095 613.7830624458302L3058.582570879309 619.7772348036667L3074.3172733186298 613.9495672335479L3099.938197528688 614.2409506120538ZM3180.422449291722 665.337107342917L3184.6058820831286 650.2059847590727L3176.363895091103 626.0836036384738L3159.588537728547 623.8357890042852L3143.9995269784795 629.372073195898L3144.8944902124617 668.1885018325823L3160.48350096253 674.1826741904188L3180.422449291722 665.337107342917ZM3184.4601903938756 614.2409506120538L3198.2592746759783 652.9116875594851L3182.6702639259106 680.0311548590023L3158.547882805312 684.6724758166326L3143.3959471230028 677.7833402248136L3144.145218667732 711.5005597376439L3154.197945226187 714.9347209843211L3153.5943653707104 720.7832016529046L3123.3321202030224 720.6375099636516L3122.7285403475457 716.1418806952743L3132.0111822628064 712.3955229716264L3131.1162190288237 618.7365798804311L3126.0170099049697 616.9466534124662L3131.1162190288237 607.039618543264L3144.145218667732 613.7830624458302L3143.1045637444968 619.7772348036667L3158.8392661838175 613.9495672335479L3184.4601903938756 614.2409506120538Z " fill="#317773" transform="matrix(0.2735863347900559,0,0,0.2735863347900559,0,123.32257415194647)"/></g></svg>